<svg xmlns="http://www.w3.org/2000/svg" width="194.3" height="60" viewBox="0 0 194.3 60"><title>logo</title><path d="M5.17,56.36a2.73,2.73,0,0,1-2,.91A2.81,2.81,0,0,1,1,56.07a4.66,4.66,0,0,1-.95-3A4.76,4.76,0,0,1,.93,50a2.76,2.76,0,0,1,2.23-1.18,2.64,2.64,0,0,1,2,.93V45.88H6.88v3.86a2.58,2.58,0,0,1,3.55-.45,3.63,3.63,0,0,1,1.16,1.47A5.21,5.21,0,0,1,12,53a4.75,4.75,0,0,1-1,3,2.81,2.81,0,0,1-2.23,1.18,2.75,2.75,0,0,1-2-.89V60H5.17ZM10.32,53a2.75,2.75,0,0,0-.5-1.69,1.53,1.53,0,0,0-1.29-.66,1.5,1.5,0,0,0-1.19.63,2.8,2.8,0,0,0-.5,1.8,2.67,2.67,0,0,0,.48,1.71,1.54,1.54,0,0,0,1.22.61,1.52,1.52,0,0,0,1.26-.68A2.79,2.79,0,0,0,10.32,53Zm-5.1.08A3,3,0,0,0,5,51.8a2,2,0,0,0-.6-.81,1.4,1.4,0,0,0-.87-.31,1.53,1.53,0,0,0-1.31.69A2.92,2.92,0,0,0,1.74,53a2.74,2.74,0,0,0,.51,1.72,1.54,1.54,0,0,0,1.26.68,1.48,1.48,0,0,0,1.21-.61,2.69,2.69,0,0,0,.5-1.74ZM18.48,49H20.2v8.06H18.48V56.2a3.57,3.57,0,0,1-1,.81,2.68,2.68,0,0,1-1.11.25,2.92,2.92,0,0,1-2.3-1.21,4.63,4.63,0,0,1-1-3A4.77,4.77,0,0,1,14,50a2.82,2.82,0,0,1,2.28-1.19,2.45,2.45,0,0,1,1.16.28,3.06,3.06,0,0,1,1,.82V49Zm-1.81,1.66a1.64,1.64,0,0,0-1.33.66,3,3,0,0,0,0,3.42,1.63,1.63,0,0,0,1.32.68A1.68,1.68,0,0,0,18,54.74,2.69,2.69,0,0,0,18.56,53,2.62,2.62,0,0,0,18,51.3a1.69,1.69,0,0,0-1.37-.65ZM28.5,45.71v1.91a11.61,11.61,0,0,1-1.44.1,13.48,13.48,0,0,0-1.9.13,2.3,2.3,0,0,0-1.12.54,2.22,2.22,0,0,0-.69,1,5.18,5.18,0,0,0-.24,1.56,2.66,2.66,0,0,1,2.55-2.09A3,3,0,0,1,28,50a4.42,4.42,0,0,1,1,3A4.61,4.61,0,0,1,27.89,56a3.23,3.23,0,0,1-2.58,1.23,3.1,3.1,0,0,1-2.21-.9,4.1,4.1,0,0,1-1.23-2.15,13.19,13.19,0,0,1-.27-2.66,9.56,9.56,0,0,1,.38-3,4,4,0,0,1,1-1.7,3.24,3.24,0,0,1,1.45-.77,15.19,15.19,0,0,1,2.43-.27c.72,0,1.26-.08,1.61-.13ZM27.2,53a2.63,2.63,0,0,0-.51-1.67A1.7,1.7,0,0,0,24.31,51a1.62,1.62,0,0,0-.32.32A2.64,2.64,0,0,0,23.46,53a2.61,2.61,0,0,0,.53,1.7,1.7,1.7,0,0,0,2.67,0A2.56,2.56,0,0,0,27.2,53Zm4.86-4v.89a3.2,3.2,0,0,1,1-.82,2.61,2.61,0,0,1,1.16-.28A2.83,2.83,0,0,1,36.52,50,4.77,4.77,0,0,1,37.45,53a4.68,4.68,0,0,1-1,3,2.94,2.94,0,0,1-2.31,1.21,2.46,2.46,0,0,1-1.1-.25,3.31,3.31,0,0,1-1-.81V60H30.35V49Zm1.81,1.66a1.68,1.68,0,0,0-1.35.65A2.62,2.62,0,0,0,32,53a2.65,2.65,0,0,0,.54,1.74,1.67,1.67,0,0,0,1.35.67,1.63,1.63,0,0,0,1.33-.68,3,3,0,0,0,0-3.42,1.63,1.63,0,0,0-1.34-.66Zm5.92,6.4h-.91V49h1.68v4.73L44.07,49h.82v8.06H43.21V52.41ZM46.63,49h1.72v3l2.37-3h2.1l-3.06,3.93,3.1,4.13H50.58l-2-2.84-.18.25v2.59H46.64V49Zm12,0h1.72v8.06H58.64V56.2a3.31,3.31,0,0,1-1,.81,2.6,2.6,0,0,1-1.1.25,2.94,2.94,0,0,1-2.31-1.21,4.75,4.75,0,0,1-1-3A4.89,4.89,0,0,1,54.19,50a2.85,2.85,0,0,1,2.29-1.19,2.48,2.48,0,0,1,1.16.28,3.17,3.17,0,0,1,1,.82V49Zm-1.81,1.66a1.65,1.65,0,0,0-1.33.66A2.67,2.67,0,0,0,55,53a2.71,2.71,0,0,0,.54,1.72,1.63,1.63,0,0,0,1.33.68,1.67,1.67,0,0,0,1.35-.67A2.64,2.64,0,0,0,58.73,53a2.57,2.57,0,0,0-.54-1.71,1.67,1.67,0,0,0-1.36-.65ZM67.44,51.9H70V49h1.72v8.06H70V53.71H67.44v3.34H65.71V49h1.73ZM78.54,49h1.72v8.06H78.54V56.2a3.44,3.44,0,0,1-1,.81,2.49,2.49,0,0,1-1.1.25,2.9,2.9,0,0,1-2.3-1.21,4.7,4.7,0,0,1-1-3A4.89,4.89,0,0,1,74.09,50a2.85,2.85,0,0,1,2.29-1.19,2.48,2.48,0,0,1,1.16.28,3.17,3.17,0,0,1,1,.82Zm-1.81,1.66a1.64,1.64,0,0,0-1.33.66,3,3,0,0,0,0,3.42,1.63,1.63,0,0,0,1.33.68,1.67,1.67,0,0,0,1.35-.67A2.69,2.69,0,0,0,78.62,53a2.62,2.62,0,0,0-.53-1.71,1.69,1.69,0,0,0-1.36-.65ZM81.38,49h6.4v1.92H85.5v6.14H83.78V50.91H81.39Zm8.7,4.76a1.85,1.85,0,0,1-.91-.81,2.58,2.58,0,0,1-.36-1.35A2.83,2.83,0,0,1,89.25,50a1.88,1.88,0,0,1,1-.85A7.48,7.48,0,0,1,92.17,49h1.74v8.06H92.18V54.13h-.34l-1.63,2.92h-2Zm2.1-1.14V50.68h-.6a.86.86,0,0,0-1,.72,1,1,0,0,0,0,.24c0,.65.36,1,1.09,1Zm6.94,1.85-.19-.25-2,2.84H94.6l3.1-4.13L94.64,49h2.1l2.38,3V49h1.72v3l2.36-3h2.11l-3.06,3.92,3.1,4.14h-2.29l-2-2.85-.18.26v2.59H99.12Zm8.66-2.56h2.56V49h1.72v8.06h-1.72V53.71h-2.56v3.34h-1.73V49h1.73Zm7.75,0H116a5.17,5.17,0,0,1,1.66.19,1.86,1.86,0,0,1,1,.82,2.84,2.84,0,0,1,.4,1.56,3.08,3.08,0,0,1-.36,1.55,1.82,1.82,0,0,1-.92.83,4.91,4.91,0,0,1-1.57.2H113.8V49h1.73Zm0,3.59h.52a2,2,0,0,0,.68-.07.73.73,0,0,0,.36-.31,1,1,0,0,0-.32-1.42,1,1,0,0,0-.53-.15h-.71Zm4.74-6.5H122v8.06h-1.72Zm2.84,0h2l1.35,2.2,1.36-2.2h2l-2.35,3.81,2.63,4.25h-2l-1.64-2.65-1.62,2.65h-2l2.6-4.25Zm13.19,8.06h-1.73V49h6v8.06h-1.73V50.94H136.3Zm9.25-8.27a3.2,3.2,0,0,1,1.83.57,3.86,3.86,0,0,1,1.34,1.55,4.68,4.68,0,0,1,.47,2.11,4.62,4.62,0,0,1-.48,2.13,3.79,3.79,0,0,1-1.31,1.55,3.22,3.22,0,0,1-4.35-.67A4.49,4.49,0,0,1,142,53a4.44,4.44,0,0,1,1.18-3.14,3.21,3.21,0,0,1,2.38-1.1Zm0,1.9a1.65,1.65,0,0,0-1.33.66,2.94,2.94,0,0,0,0,3.38,1.69,1.69,0,0,0,2.37.3,1.52,1.52,0,0,0,.31-.31,3,3,0,0,0,0-3.38,1.67,1.67,0,0,0-1.35-.65ZM150,49h6.4v1.92h-2.28V57h-1.73V50.91H150Zm10.75-.21a3.33,3.33,0,0,1,1.83.58,3.89,3.89,0,0,1,1.33,1.54,4.83,4.83,0,0,1,.48,2.11,5,5,0,0,1-.48,2.14,3.88,3.88,0,0,1-1.32,1.55,3.23,3.23,0,0,1-4.35-.67,4.5,4.5,0,0,1-1-3,4.42,4.42,0,0,1,1.18-3.15,3.19,3.19,0,0,1,2.37-1.1Zm0,1.91a1.65,1.65,0,0,0-1.33.66A2.53,2.53,0,0,0,158.9,53a2.67,2.67,0,0,0,.52,1.71,1.7,1.7,0,0,0,2.68,0,3,3,0,0,0,0-3.38,1.65,1.65,0,0,0-1.35-.65Zm11.16,6.36h-1.76L168.44,52l-1.75,5.09h-1.75L167.87,49H169Zm.91-8.06h1.72v3l2.37-3H179L176,52.92l3.1,4.13h-2.29l-2-2.84-.18.25v2.59h-1.72Zm10.16-.2a3.19,3.19,0,0,1,1.82.57,3.86,3.86,0,0,1,1.34,1.55,4.88,4.88,0,0,1,0,4.24,3.79,3.79,0,0,1-1.31,1.55,3.24,3.24,0,0,1-4.36-.67,4.48,4.48,0,0,1-1-3,4.36,4.36,0,0,1,1.18-3.14A3.15,3.15,0,0,1,183,48.78Zm0,1.9a1.67,1.67,0,0,0-1.34.66,2.54,2.54,0,0,0-.53,1.68,2.61,2.61,0,0,0,.53,1.7,1.69,1.69,0,0,0,2.37.3,1.77,1.77,0,0,0,.3-.31,3,3,0,0,0,0-3.38,1.66,1.66,0,0,0-1.35-.66Zm5,6.37V49h2.75a2.19,2.19,0,0,1,1.84.62,2.25,2.25,0,0,1,.49,1.42,1.79,1.79,0,0,1-1,1.7,2,2,0,0,1,1.36,2.06,2.5,2.5,0,0,1-.36,1.36,1.71,1.71,0,0,1-.91.72,5.32,5.32,0,0,1-1.54.17H188Zm1.72-4.89h.67a.87.87,0,0,0,.65-.25.78.78,0,0,0,.23-.55,1,1,0,0,0-.22-.71.67.67,0,0,0-.52-.25h-.81v1.75Zm0,3.33h.87a.83.83,0,0,0,.71-.28.94.94,0,0,0,.2-.54,1.23,1.23,0,0,0-.23-.72,1,1,0,0,0-.83-.33h-.72v1.86Z" style="fill:#e62229"/><path d="M1.81,38.06v-13H8v2.25H5.75V38.06Zm16.64-8.41v3.17a13,13,0,0,1-.17,2.57,3.64,3.64,0,0,1-.76,1.52A3.39,3.39,0,0,1,16,38,6.09,6.09,0,0,1,14,38.3,7.57,7.57,0,0,1,11.74,38a3.05,3.05,0,0,1-1.41-.87,3.57,3.57,0,0,1-.72-1.41,10.27,10.27,0,0,1-.21-2.48V29.93a8,8,0,0,1,.39-2.83,3.21,3.21,0,0,1,1.41-1.63,5,5,0,0,1,2.6-.62,5.93,5.93,0,0,1,2.28.4,3.56,3.56,0,0,1,2.18,2.34,8,8,0,0,1,.19,2.06Zm-3.94-1a4.42,4.42,0,0,0-.11-1.26.44.44,0,0,0-.46-.26.45.45,0,0,0-.47.26,3.81,3.81,0,0,0-.12,1.26v5.85a4,4,0,0,0,.12,1.2.45.45,0,0,0,.46.28.46.46,0,0,0,.46-.25,3.41,3.41,0,0,0,.12-1.1Zm10.06-3.59-.06,1.15a3.45,3.45,0,0,1,1.15-1,2.9,2.9,0,0,1,1.39-.35,2.61,2.61,0,0,1,1.59.5,2,2,0,0,1,.83,1.14,9.39,9.39,0,0,1,.17,2.18v5.47a9.69,9.69,0,0,1-.21,2.52,2.07,2.07,0,0,1-.86,1.19A2.72,2.72,0,0,1,27,38.3,3,3,0,0,1,25.64,38a4,4,0,0,1-1.14-1v3H20.55V25.08Zm1.13,3.78a7,7,0,0,0-.09-1.45c-.06-.17-.22-.26-.49-.26a.47.47,0,0,0-.5.29,5.21,5.21,0,0,0-.11,1.42v5.37a4.82,4.82,0,0,0,.11,1.47.48.48,0,0,0,.51.29c.25,0,.41-.09.47-.26a4.8,4.8,0,0,0,.09-1.31Zm15,.79v3.17a13.82,13.82,0,0,1-.17,2.57,3.64,3.64,0,0,1-.76,1.52A3.39,3.39,0,0,1,38.27,38a6.13,6.13,0,0,1-2.08.34A7.57,7.57,0,0,1,34,38a3.05,3.05,0,0,1-1.41-.87,3.44,3.44,0,0,1-.72-1.41,10.27,10.27,0,0,1-.21-2.48V29.93A8,8,0,0,1,32,27.1a3.21,3.21,0,0,1,1.41-1.63,5,5,0,0,1,2.6-.62,5.93,5.93,0,0,1,2.28.4,3.58,3.58,0,0,1,2.18,2.34,8,8,0,0,1,.19,2.06Zm-4-1a4.42,4.42,0,0,0-.1-1.26.44.44,0,0,0-.46-.26.46.46,0,0,0-.47.26,3.81,3.81,0,0,0-.12,1.26v5.85a3.71,3.71,0,0,0,.11,1.2.46.46,0,0,0,.46.28.48.48,0,0,0,.47-.25,3.41,3.41,0,0,0,.11-1.1Zm17.54,11.9H51.63V38.06H45v2.51H42.33V35h.84a10.53,10.53,0,0,0,1.24-3.61,30.35,30.35,0,0,0,.49-5.78v-.49h8.52v9.86h.84Zm-4.75-5.63V28h-1v.14a19.69,19.69,0,0,1-1.18,6.79Z" style="fill:#1c2e36"/><path d="M75,13.39V38.18H69.35V21.44L67.1,38.18h-4L60.72,21.82V38.18H55.09V13.39h8.35c.24,1.49.5,3.25.78,5.26L65.1,25l1.47-11.58Zm15,0,3.69,24.79H87l-.32-4.46H84.4L84,38.18H77.35l3.28-24.79ZM86.54,29.33q-.5-4.21-1-10.4c-.66,4.74-1.06,8.21-1.23,10.4Zm24.82-5.13h-6.44V19.88a7.75,7.75,0,0,0-.21-2.35.89.89,0,0,0-.91-.47,1,1,0,0,0-1,.57,9.17,9.17,0,0,0-.21,2.45V31.59a8.48,8.48,0,0,0,.21,2.36.92.92,0,0,0,1,.55.89.89,0,0,0,.94-.55,9,9,0,0,0,.23-2.59v-3.1h6.44v1a19.2,19.2,0,0,1-.54,5.45,5.62,5.62,0,0,1-2.4,2.82,8.26,8.26,0,0,1-4.59,1.21,9.55,9.55,0,0,1-4.67-1,5.06,5.06,0,0,1-2.44-2.84,18.38,18.38,0,0,1-.59-5.47V22.13a30.05,30.05,0,0,1,.18-4,5.61,5.61,0,0,1,1.1-2.58,6,6,0,0,1,2.53-1.95,10.32,10.32,0,0,1,8.41.39,5.34,5.34,0,0,1,2.44,2.75,16.65,16.65,0,0,1,.57,5.12V24.2Zm19.21-10.81h10.75v5H137v4.7h4v4.72h-4v5.45h4.73v5H130.57Zm14.28,0h6.49a15.36,15.36,0,0,1,4,.41A4.57,4.57,0,0,1,157.51,15a4.16,4.16,0,0,1,1,1.9,17.17,17.17,0,0,1,.25,3.44v2.16a9.08,9.08,0,0,1-.49,3.46,3.38,3.38,0,0,1-1.8,1.67,8.68,8.68,0,0,1-3.42.58h-1.73v10h-6.45V13.39Zm6.45,4.24v6.31h.47a1.48,1.48,0,0,0,1.23-.43,3.26,3.26,0,0,0,.35-1.81V19.66A2.42,2.42,0,0,0,153,18a2.52,2.52,0,0,0-1.65-.38ZM176.57,27.9c0,2.49-.06,4.26-.17,5.29A5.93,5.93,0,0,1,172.79,38a9,9,0,0,1-3.67.69,9.26,9.26,0,0,1-3.57-.65,6,6,0,0,1-3.71-4.78,53.53,53.53,0,0,1-.18-5.37V23.66a52.9,52.9,0,0,1,.18-5.29,5.84,5.84,0,0,1,1.1-2.84,6,6,0,0,1,2.5-2,9,9,0,0,1,3.68-.69,9.26,9.26,0,0,1,3.57.65,5.92,5.92,0,0,1,3.7,4.78,50.62,50.62,0,0,1,.18,5.37Zm-6.44-8.14a7.89,7.89,0,0,0-.2-2.22.75.75,0,0,0-.78-.48.91.91,0,0,0-.78.39,5.65,5.65,0,0,0-.27,2.31V31.33a12,12,0,0,0,.18,2.67.76.76,0,0,0,.82.5.78.78,0,0,0,.84-.58,12.23,12.23,0,0,0,.19-2.77Zm9.15-6.37h6.44a16.66,16.66,0,0,1,4.61.47,4.62,4.62,0,0,1,2.53,1.92,8.68,8.68,0,0,1,1,4.66,5,5,0,0,1-.68,3,4.71,4.71,0,0,1-2.68,1.32,4.83,4.83,0,0,1,3,1.67,6.53,6.53,0,0,1,.79,3.59v2.3a9,9,0,0,1-.57,3.72,3.15,3.15,0,0,1-1.83,1.66,18.93,18.93,0,0,1-5.14.44h-7.46V13.39Zm6.45,4.24v5.51h.65c.63,0,1-.16,1.2-.47a7.76,7.76,0,0,0,.26-2.67,4.28,4.28,0,0,0-.21-1.63,1,1,0,0,0-.56-.59,4.67,4.67,0,0,0-1.34-.14Zm0,9.37v6.93a2.65,2.65,0,0,0,1.73-.43,2.87,2.87,0,0,0,.38-1.88V29.31a3.2,3.2,0,0,0-.34-1.92,3,3,0,0,0-1.77-.39Z" style="fill:#1c2e36"/><path d="M117.5,38.57h9.91L125.84,7.19h1.42a4.35,4.35,0,0,0,3.65-1.81h2.8V7.23h4.4V0h-4.4V2.09h-2.8A4.33,4.33,0,0,0,127.26.27h-9.54a4.35,4.35,0,0,0-3.66,1.82h-.56V0h-7.11V7.23h7.11V5.38h.56a4.36,4.36,0,0,0,3.66,1.81h1.42Z" style="fill:#e62229;fill-rule:evenodd"/><path d="M2.34,17C35.41,7.72,69.82,2,104.18,1V4.26c-5.54.06-10.73.27-15.32.66C55.23,7.81,2.34,17,2.34,17ZM140.58,1.78a313.32,313.32,0,0,1,48.16,7.34S166.1,6.7,140.58,5.26Z" style="fill:#e62229;fill-rule:evenodd"/></svg>