<svg width="21" height="20" viewBox="0 0 21 20" fill="none" xmlns="http://www.w3.org/2000/svg">
<path d="M9.88346 18.125C5.17513 18.125 1.3418 14.2917 1.3418 9.58332C1.3418 4.87499 5.17513 1.04166 9.88346 1.04166C14.5918 1.04166 18.4251 4.87499 18.4251 9.58332C18.4251 14.2917 14.5918 18.125 9.88346 18.125ZM9.88346 2.29166C5.85846 2.29166 2.5918 5.56666 2.5918 9.58332C2.5918 13.6 5.85846 16.875 9.88346 16.875C13.9085 16.875 17.1751 13.6 17.1751 9.58332C17.1751 5.56666 13.9085 2.29166 9.88346 2.29166Z" fill="#292D32"/>
<path d="M18.6333 18.9583C18.475 18.9583 18.3167 18.9 18.1917 18.775L16.525 17.1083C16.2833 16.8667 16.2833 16.4667 16.525 16.225C16.7667 15.9833 17.1667 15.9833 17.4083 16.225L19.075 17.8917C19.3167 18.1333 19.3167 18.5333 19.075 18.775C18.95 18.9 18.7917 18.9583 18.6333 18.9583Z" fill="#292D32"/>
</svg>
