<svg width="21" height="18" viewBox="0 0 21 18" fill="none" xmlns="http://www.w3.org/2000/svg">
<path d="M5.12347 12.4773H17.6659L20.3 2.81819H3.44615L3.04371 0.5M5.12347 12.4773L3.04371 0.5M5.12347 12.4773L5.51543 15.1818M3.04371 0.5H0.300049M5.51543 15.1818H17.274M5.51543 15.1818C5.51543 15.1818 4.33957 15.1818 4.33957 16.3409C4.33957 17.5 5.51543 17.5 5.51543 17.5C5.51543 17.5 6.69128 17.5 6.69128 16.3409C6.69128 15.1818 5.51543 15.1818 5.51543 15.1818ZM17.274 15.1818C17.274 15.1818 18.4498 15.1818 18.4498 16.3409C18.4498 17.5 17.274 17.5 17.274 17.5C17.274 17.5 16.0981 17.5 16.0981 16.3409C16.0981 15.1818 17.274 15.1818 17.274 15.1818Z" stroke="black"/>
</svg>
